<svg viewBox="0 0 678.5 545" style="enable-background:new 0 0 678.5 545;" xml:space="preserve">
                                <g>
                                    <g>
                                        <path d="M576.8,546.3c-157.6,0-315.3,0-472.9,0c-0.6-5.9-5.9-5.8-9.7-6.9c-7-2.1-12.2-6.3-16.2-12c-3.4-5-5.4-11.1-9.4-15.5
                                            c-4.9-5.6-3.8-11.7-3.8-17.9c-0.1-52.9,0-105.7,0-158.6c0-80.6,0-161.1,0-241.7c0-1.9-0.3-4.1,0.5-5.6c2.3-4.5,5-8.7,7.6-13
                                            c6.2-9.8,13.3-18.5,25.6-20.8c4.2-0.8,8.5-1.8,12.7-1.9c12.2-0.3,24.3-0.1,36.5-0.2c8,0,9.8,1.9,9.7,9.9
                                            c-0.3,14.4-0.3,28.8-0.5,43.2c-0.2,11.5,3.9,21.8,9.9,31.2c9.5,14.8,22.8,24.4,40.1,29.2c13.7,3.8,26.9,2,38.8-3.9
                                            c24.4-12,37.5-32.1,37.7-59.7c0.1-13.6-0.3-27.2-0.6-40.8c-0.1-6.6,1.7-8.9,8.2-8.9c32.8-0.1,65.7-0.1,98.5,0
                                            c6.6,0,8.4,2.3,8.2,8.9c-0.3,13.9-0.9,27.9-0.5,41.8c0.3,7.9,1.1,16.3,3.9,23.6c4.5,11.8,12.4,21.9,22.8,29
                                            c25.3,17.3,52,15.7,75-2.7c16.7-13.3,25.2-31,24.6-52.8c-0.4-13-0.4-25.9-0.6-38.9c-0.1-6.5,1.7-8.9,7.2-8.9
                                            c14.1,0,28.2-0.4,42.3,0.3c8.6,0.4,16.9,2.8,23.8,8.9c6.9,6.1,11.5,13.6,15.3,21.8c1.7,3.7,4.3,6.7,4.3,11.5
                                            c-0.2,129.9-0.2,259.8-0.2,389.7c0,6.6,0,13.1,0,19.7c0,1.2-0.1,2.7-0.6,3.7c-2.1,3.7-4.2,7.4-6.7,10.8c-3.7,5.1-7.2,10.7-12,14.7
                                            c-4.5,3.7-10.6,5.4-15.8,8.3C579.1,542.5,578.1,544.7,576.8,546.3z M339.9,499.5c0,0,0-0.1,0-0.1c59.9,0,119.8,0,179.7,0
                                            c11.5,0,23.1,0.2,34.6,0c8.5-0.1,12.6-4.3,12.9-12.8c0.1-3.2-0.1-6.4-0.1-9.6c0.1-84.1,0.1-168.2,0.2-252.3
                                            c0-9.6-4.7-14.5-14.4-14.7c-5-0.1-9.9,0.1-14.9,0.1c-136.1,0-272.3-0.1-408.4-0.1c-11.5,0-15.9,4.7-15.9,16.1
                                            c0.1,85.8,0.1,171.7,0.1,257.5c0,11.7,3.7,15.8,15.3,15.8C199.2,499.5,269.5,499.5,339.9,499.5z"/>
                                        <path d="M198.9,65.7c0-12,0.2-24,0-36C198.7,19,202.5,10.8,212.9,7c3.6-1.3,5.5-8.1,9.6-4.9c8,6.3,19.5,10.1,19.7,23.2
                                            c0.1,4,0.2,8,0.2,12c0,21-0.2,41.9,0.2,62.9c0.2,12.5-5.2,20.8-16.2,25.7c-2.3,1-5.4,1.4-7.9,1c-10.8-1.7-19.3-11.4-19.5-22.4
                                            C198.8,91.6,199,78.6,198.9,65.7C199,65.7,198.9,65.7,198.9,65.7z"/>
                                        <path d="M481.8,66.2c0,12.2,0,24.3,0,36.5c0,14.3-5.5,17.8-18.3,23.9c-1.8,0.9-4.5,0.7-6.6,0.2c-10.1-2.2-18.5-11.9-18.6-22.3
                                            c-0.2-25.6-0.3-51.2,0-76.8c0.1-9.1,3.8-16.8,13.1-20.5c2.1-0.8,3.5-3.3,5.6-4.2c1.7-0.7,4.2-0.9,5.8-0.1c2.5,1.1,4.3,3.6,6.8,4.8
                                            c8.1,3.9,12,10.4,12.1,19.1C481.9,40,481.8,53.1,481.8,66.2C481.8,66.2,481.8,66.2,481.8,66.2z"/>
                                        <path d="M340.5,457.9c-10.9,0-21.8,0-32.6,0c-5.7,0-7-1.5-7-7.1c0-21.6,0-43.2,0-64.8c0-5.1,1.4-6.7,6.4-6.7
                                            c22.1-0.1,44.2-0.1,66.2,0c5.3,0,6.6,1.6,6.6,7.1c0,21.4-0.1,42.9,0,64.3c0,5.9-1.3,7.3-7.4,7.3
                                            C361.9,457.9,351.2,457.9,340.5,457.9z"/>
                                        <path d="M212.5,457.9c-10.9,0-21.8,0-32.6,0c-5.7,0-7-1.5-7-7.1c0-21.6,0-43.2,0-64.8c0-5.1,1.4-6.7,6.5-6.7
                                            c22.1-0.1,44.2,0,66.2,0c5.1,0,6.5,1.5,6.5,6.6c0,21.8,0,43.5,0,65.3c0,5.3-1.4,6.7-6.9,6.7C234.2,457.9,223.4,457.8,212.5,457.9
                                            C212.5,457.9,212.5,457.9,212.5,457.9z"/>
                                        <path d="M468.4,379.2c10.9,0,21.8,0,32.6,0c5.6,0,6.9,1.6,6.9,7.2c-0.1,21.3-0.1,42.5,0,63.8c0,6.1-1.2,7.6-7.5,7.6
                                            c-21.3,0-42.6,0-63.8,0c-6.9,0-7.8-1.3-7.8-8.2c0.1-20.8,0.1-41.6,0-62.4c0-6.6,1-8,7.5-8C447,379.2,457.7,379.2,468.4,379.2z"/>
                                        <path d="M212.2,337.8c-10.7,0-21.4,0-32.2,0c-5.5,0-7.2-1.6-7.2-7.1c0-21.6,0-43.2,0.1-64.8c0-5.2,1.8-7,6.3-6.9
                                            c12.6,0.3,25.2,0.7,37.9,0.7c9.3,0,18.5-0.3,27.8-0.5c4.9-0.1,6.8,1.8,6.8,7.6c0.1,16.5,0,33,0,49.4c0,4.6,0.2,9.3,0.2,13.9
                                            c0,6.1-1.5,7.7-7.6,7.7C233.7,337.8,223,337.8,212.2,337.8z"/>
                                        <path d="M340.1,337.8c-10.6,0-21.1,0-31.7,0c-5.8,0-7.6-1.5-7.6-7.2c0-21.4,0.1-42.9,0.1-64.3c0-5.3,1.8-7.3,6.2-7.2
                                            c16,0.2,32,0.5,47.9,0.7c5.9,0,11.8-0.3,17.7-0.6c5-0.3,7,1.6,7,7.3c0,16.6-0.1,33.3,0,49.9c0,4.8,0.2,9.6,0.2,14.4
                                            c0,5.5-1.7,7.1-7.2,7.1C361.8,337.8,350.9,337.8,340.1,337.8z"/>
                                        <path d="M468.1,337.8c-10.7,0-21.4,0-32.2,0c-5.5,0-7.2-1.5-7.2-7.1c0-21.1,0-42.2,0.1-63.4c0-7.1,1.9-8,9.2-7.9
                                            c20.8,0.2,41.6,0,62.3-0.3c5.1-0.1,7.3,1.2,7.4,6.3c0.1,21.9,0.1,43.8,0.1,65.8c0,5.1-1.8,6.7-7.1,6.7
                                            C489.9,337.8,479,337.8,468.1,337.8z"/>
                                    </g>
                                </g>
                            </svg>