<svg viewBox="0 0 678.5 545" style="enable-background:new 0 0 678.5 545;" xml:space="preserve">
                                <g>
                                    <g>
                                        <path d="M115.9,244.3c1.3-1,3.2-1.7,3.8-2.9c1.1-2.3,1.7-5,1.9-7.6c1.8-18.1,9-34.6,16.1-50.9c6.9-15.9,16.6-30.2,27.3-43.9
                                            c11.2-14.3,24.5-26.6,38.8-37.6c7.9-6.1,16.6-11.1,25-16.4c5.7-3.6,11.3-7.4,17.3-10.2c7-3.3,14.6-5.4,21.7-8.5
                                            c11.2-4.8,23.1-6.3,34.9-8.9c3.2-0.7,6.4-1.2,9.6-1.7c7.9-1.4,11-4.9,11-12.9c0-4.9-0.3-9.9-0.6-14.8c-0.4-5.4,1.7-7.9,7-8
                                            c6.5-0.1,13-0.1,19.5,0c4.8,0.1,6.7,2.1,6.6,7c-0.1,5.4-0.5,10.8-0.5,16.2c0,7.9,2.8,11.2,10.7,12.6c9.4,1.8,19,2.9,28.1,5.5
                                            c9.1,2.5,17.9,6.3,26.8,9.8c6.6,2.7,13.1,5.7,19.6,8.8c2.9,1.4,5.4,3.5,8.2,5c16.4,9.3,31.7,20.4,45,33.7
                                            c8.6,8.6,16,18.3,23.9,27.6c10.2,11.8,16.8,25.8,23.4,39.7c3.8,8,5.8,16.9,9.3,25c6.6,15.5,5.6,32.5,9.9,48.3
                                            c1.7,6.1,2.8,11.9,2.8,18c0,1.1,0.2,2.4-0.3,3.2c-4,10.7-4.5,20.7-6.6,31.1c-1,5.1-2.4,10.1-3.8,15.1c-0.4,1.6-1.3,3.2-1.6,4.8
                                            c-3.6,15.8-11,30-18.3,44.3c-8.8,17.2-21.1,31.9-34.3,45.7c-7.1,7.4-15.4,13.7-23.2,20.5c-1.2,1-2.4,1.9-3.5,3
                                            c-6.3,6-6.4,7.8-1.8,15c7.6,11.8,15.2,23.6,22.7,35.5c2.3,3.6,4.4,7.3,6.2,11.2c3.4,7.4,2.1,15.1-1.8,21.4c-6.2,9.9-19.5,15-32,7
                                            c-8-5.1-11.9-13.6-16.9-21.1c-7.2-10.9-13.8-22.2-20.9-33.2c-3.1-4.8-7.7-5.9-13.5-3.7c-25,9.3-51,13.8-77.6,13.5
                                            c-23.6-0.3-46.7-4.5-69-12.3c-10.1-3.5-11.3-3.1-17.1,5.8c-8.6,13.1-17.2,26.3-25.7,39.5c-7.7,12-17.2,16.9-28.3,14.9
                                            c-12-2.2-24.1-21.4-16.1-32.5c6.8-9.5,12.2-19.9,18.3-29.9c3.8-6.2,7.8-12.2,11.6-18.4c2.5-4,1.7-7.6-1.8-10.7
                                            c-9.4-8.2-19.4-15.9-28.1-24.8c-8.7-8.9-16.3-18.9-23.9-28.8c-10.4-13.6-17.8-28.9-23.8-44.8c-4.1-10.7-6.5-22.1-9.6-33.2
                                            c-1.1-4-1.6-8.2-2.9-12.2c-0.4-1.3-2.4-2.1-3.7-3.2C115.9,281.4,115.9,262.8,115.9,244.3z M513.6,272.8
                                            c-0.5-7.5-0.4-15.2-1.6-22.6c-3.2-19.8-7.2-39.5-17.7-57.1c-5.8-9.8-11.6-19.6-18.3-28.8c-9.5-13.1-21.7-23.7-35-32.8
                                            c-7.9-5.4-16.2-10.3-24.8-14.2c-8-3.7-16.7-5.8-25.1-8.7c-1-0.3-2-0.9-3-1.2c-5.5-1.4-10.9-3-16.5-4c-3.8-0.7-7.7-0.9-11.5-1.1
                                            c-10.6-0.4-21.2-1.1-31.9-1c-7.2,0.1-14.6,0.7-21.6,2.1c-11,2.2-21.7,5.3-32.6,8c-0.3,0.1-0.5,0.3-0.8,0.4
                                            c-6.9,3.4-14,6.4-20.6,10.3c-9.1,5.4-18.4,10.8-26.6,17.5c-13.9,11.3-25.6,24.7-35.4,39.9c-11.3,17.6-18.5,36.5-22.9,56.7
                                            c-3.7,17.2-3.3,34.7-2.5,52.2c1.3,26.1,9.5,50.3,22.6,72.7c8.8,14.9,19.8,28.3,33,39.7c10.5,9.1,21.6,17.3,34.4,23
                                            c5.4,2.4,11.1,4.4,16.2,7.4c9.8,5.8,20.9,8.3,31.5,9.8c17.1,2.5,34.8,2,52.2,2c8.4,0,16.9-1.6,25.2-2.9c3.7-0.6,7.3-2.5,10.9-3.7
                                            c8.1-2.8,16.7-4.6,24.3-8.5c12.8-6.6,25.3-13.8,36.6-23.1c20.1-16.5,35.5-36.6,46.1-60C508.4,322.1,513.5,297.9,513.6,272.8z"/>
                                        <path d="M536.7,80.6c-1.9,8.1-3.4,16.2-5.6,24.2c-1.8,6.6-5,7.7-11.1,4.2c-5.7-3.2-11.2-6.9-16.9-10.2c-8.3-4.7-16.7-9.3-25-13.9
                                            c-10.3-5.6-20.5-11.2-30.9-16.8c-7-3.8-14.2-7.3-21.2-11c-4.9-2.6-9.6-5.5-14.4-8.1c-2.9-1.6-5.9-3.3-9-4.7
                                            c-4.9-2.2-5.8-5.4-2.3-9.4c8.1-9,17.1-16.4,28.2-21.9c18.6-9.4,38-9.5,56.7-3.7c16.5,5.1,30.9,15.3,39.7,31.3
                                            C534.3,58.1,535.4,68.4,536.7,80.6z"/>
                                        <path d="M214.7,5.2c8.3,1.3,16.7,1.3,24,4.1c11.7,4.5,22.9,10.7,31.5,20.4c1.5,1.7,3.2,3.4,4.7,5.1c3,3.6,2.3,6.9-1.7,9.1
                                            c-7.5,4.2-14.8,8.6-22.4,12.6c-9.2,4.9-18.6,9.4-27.8,14.4c-10,5.4-19.8,11.1-29.8,16.6c-6.3,3.5-12.8,6.7-19.1,10.2
                                            c-5.2,2.9-10.4,6-15.5,9c-1.5,0.9-2.8,2-4.3,2.6c-6.6,2.8-9.9,1-11.2-6c-0.4-2.3-0.7-4.6-1.3-6.8c-5.6-20.2-1.2-38.9,8.9-56.5
                                            c4.5-7.9,10.7-14.7,18.8-19.5c6.7-4,13.2-8.9,20.4-11.3C197.8,6.7,206.6,6.4,214.7,5.2z"/>
                                        <path d="M331.1,204.6c0-22.2,0-44.4,0-66.7c0-5.7,3.2-9.9,7.6-9.9c4.2-0.1,8.6,5.1,8.5,9.9c-0.2,17.9-0.4,35.8-0.4,53.7
                                            c-0.1,21.6,0.6,43.2-0.3,64.8c-0.5,11.4,6,16.9,13.8,22.6c17,12.5,33.9,25.1,50.8,37.7c6.2,4.6,12.3,9.2,18.4,14
                                            c1.5,1.2,2.8,3,3.5,4.7c1.7,4.1-0.6,7.8-5.1,8.3c-4.3,0.5-8-0.7-11.6-3.4c-12.9-10-26.1-19.6-39.1-29.4
                                            c-9.9-7.4-19.8-14.7-29.6-22.1c-4.2-3.1-8.3-6.4-12.6-9.3c-2.9-1.9-4.1-4.3-4-7.7c0.1-22.4,0-44.8,0-67.1
                                            C331,204.6,331.1,204.6,331.1,204.6z"/>
                                    </g>
                                </g>
                            </svg>