<svg id="Layer_1" xmlns="http://www.w3.org/2000/svg" viewBox="0 0 27.5 27.5"><style>.st0{fill:#1d1d1b}</style><path class="st0" d="M26.9 15l-.3-.3c-.8-.6-1.7-1.2-2.7-1.7-.8-.4-1.7-.7-2.6-1 2-1.5 3.1-4 2.6-6.7-.5-2.6-2.7-4.7-5.3-5.3-4-.8-7.6 2-8.1 5.7-3.8 0-6.8 3-6.8 6.7 0 2.2 1.1 4.1 2.7 5.4-.9.2-1.8.6-2.6 1-1 .5-1.8 1.1-2.7 1.7l-.3.3c-.6.4-.8.9-.8 1.4v3.9c0 .8.6 1.4 1.4 1.4h17.9c.8 0 1.4-.6 1.4-1.4v-3.9c0-.2 0-.4-.1-.6H26c.8 0 1.4-.6 1.4-1.4v-3.9c.1-.5-.1-.9-.5-1.3zM12.4 6.2c.3-2.4 2.3-4.2 4.7-4.2C19.8 2 22 4.1 22 6.8c0 2.6-2.2 4.8-4.8 4.8h-.1v-.3c-.5-2.6-2.7-4.7-5.3-5.3-.3 0 .3.1.6.2zm4.8 6.3zm-11.7.1c0-2.6 2.2-4.8 4.8-4.8 2.7 0 4.8 2.2 4.8 4.8 0 2.6-2.2 4.8-4.8 4.8-2.6 0-4.8-2.1-4.8-4.8zm13.3 12.9H2v-2.9c0-.2.1-.5.3-.6 2.3-1.7 5.1-2.7 8.1-2.7s5.8 1 8.1 2.7c.2.1.3.4.3.6v2.9zm1.6-4.3zm5.1-1.5h-7.2c-.4-.3-.8-.5-1.3-.7-.8-.4-1.7-.7-2.6-1 1.4-1.1 2.4-2.7 2.6-4.5 3 0 5.8 1 8.1 2.7.2.1.3.4.3.6v2.9z"/></svg>