<svg xmlns="http://www.w3.org/2000/svg" viewBox="0 0 27.5 27.5"><path d="M18.4 2.3c.1.1.2.2.3.2 2.8 2.1 5.6 4.2 8.4 6.4.1.1.2.2.4.3-3 2.3-6.1 4.5-9.2 6.8v-4.6c-1 .1-1.9.1-2.9.2-3.2.3-5.4 2.1-7.2 4.6-.4.6-.9 1.3-1.4 1.9.1-.5.1-1.1.2-1.6.4-2.3 1.2-4.4 2.7-6.2 1.8-2.3 4.2-3.4 7-3.8.5-.1 1-.1 1.6-.1 0-1.3 0-2.7.1-4.1z"/><path d="M2.8 9.6v12.9h17.9v-.4-3.5c0-.2.1-.4.3-.5.8-.6 1.6-1.3 2.5-2V23.7c0 1-.5 1.6-1.6 1.6H1.7c-1.1 0-1.6-.5-1.6-1.6V8.6C.1 7.5.6 7 1.7 7H10c-.2 0-.3 0-.4.1-.9.6-1.8 1.4-2.6 2.3-.1.1-.3.2-.4.2H2.8z"/></svg>