<svg id="Layer_1" xmlns="http://www.w3.org/2000/svg" viewBox="0 0 27.5 27.5"><style>.st0{fill:#1d1d1b}</style><path class="st0" d="M17.7 16.7l-2-2s-.1 0-.1-.1c.1-.3.2-.5.2-.8 0-.9-.5-1.6-1.3-1.9V4.4c0-.4-.3-.7-.7-.7-.4 0-.8.3-.8.7v7.5c-.8.3-1.3 1-1.3 1.9 0 1.1.9 2 2 2 .3 0 .6-.1.8-.2 0 0 0 .1.1.1l2 2c.3.3.7.3 1 0s.3-.7.1-1zm-5.2-2.9c0-.7.6-1.2 1.2-1.2s1.2.6 1.2 1.2-.5 1.2-1.1 1.2-1.3-.6-1.3-1.2z"/><path class="st0" d="M13.8 27.5C6.2 27.5 0 21.3 0 13.8S6.2 0 13.8 0s13.8 6.2 13.8 13.8-6.3 13.7-13.8 13.7zm0-25.5C7.3 2 2 7.3 2 13.8s5.3 11.8 11.8 11.8 11.8-5.3 11.8-11.8S20.2 2 13.8 2z"/><circle class="st0" cx="7.2" cy="7.2" r=".8"/><circle class="st0" cx="4.6" cy="13.8" r=".8"/><circle class="st0" cx="22.8" cy="13.8" r=".8"/><circle class="st0" cx="20.2" cy="7.2" r=".8"/><circle class="st0" cx="20.2" cy="20.3" r=".8"/><circle class="st0" cx="7.2" cy="20.3" r=".8"/><circle class="st0" cx="13.7" cy="22.9" r=".8"/></svg>