<?xml version="1.0" encoding="utf-8"?>
<!-- Generator: Adobe Illustrator 21.1.0, SVG Export Plug-In . SVG Version: 6.00 Build 0)  -->
<svg version="1.1" id="Layer_1" xmlns="http://www.w3.org/2000/svg" xmlns:xlink="http://www.w3.org/1999/xlink" x="0px" y="0px"
	 viewBox="0 0 27.5 27.5" style="enable-background:new 0 0 27.5 27.5;" xml:space="preserve">
<style type="text/css">
	.st0{fill:#1D1D1B;}
</style>
<path class="st0" d="M17.7,16.7l-2-2c0,0-0.1,0-0.1-0.1c0.1-0.3,0.2-0.5,0.2-0.8c0-0.9-0.5-1.6-1.3-1.9c0,0,0-0.1,0-0.1V4.4
	c0-0.4-0.3-0.7-0.7-0.7C13.4,3.7,13,4,13,4.4v7.4c0,0,0,0.1,0,0.1c-0.8,0.3-1.3,1-1.3,1.9c0,1.1,0.9,2,2,2c0.3,0,0.6-0.1,0.8-0.2
	c0,0,0,0.1,0.1,0.1l2,2c0.3,0.3,0.7,0.3,1,0S17.9,17,17.7,16.7z M12.5,13.8c0-0.7,0.6-1.2,1.2-1.2s1.2,0.6,1.2,1.2S14.4,15,13.8,15
	S12.5,14.4,12.5,13.8z"/>
<g>
	<path class="st0" d="M13.8,27.5C6.2,27.5,0,21.3,0,13.8S6.2,0,13.8,0s13.8,6.2,13.8,13.8S21.3,27.5,13.8,27.5z M13.8,2
		C7.3,2,2,7.3,2,13.8s5.3,11.8,11.8,11.8s11.8-5.3,11.8-11.8S20.2,2,13.8,2z"/>
</g>
<g>
	<circle class="st0" cx="7.2" cy="7.2" r="0.8"/>
</g>
<g>
	<circle class="st0" cx="4.6" cy="13.8" r="0.8"/>
</g>
<g>
	<circle class="st0" cx="22.8" cy="13.8" r="0.8"/>
</g>
<g>
	<circle class="st0" cx="20.2" cy="7.2" r="0.8"/>
</g>
<g>
	<circle class="st0" cx="20.2" cy="20.3" r="0.8"/>
</g>
<g>
	<circle class="st0" cx="7.2" cy="20.3" r="0.8"/>
</g>
<g>
	<circle class="st0" cx="13.7" cy="22.9" r="0.8"/>
</g>
</svg>
