<?xml version="1.0" encoding="utf-8"?>
<!-- Generator: Adobe Illustrator 21.1.0, SVG Export Plug-In . SVG Version: 6.00 Build 0)  -->
<svg version="1.1" id="Layer_1" xmlns="http://www.w3.org/2000/svg" xmlns:xlink="http://www.w3.org/1999/xlink" x="0px" y="0px"
	 viewBox="0 0 27.5 27.5" style="enable-background:new 0 0 27.5 27.5;" xml:space="preserve">
<style type="text/css">
	.st0{fill:#1D1D1B;}
</style>
<path class="st0" d="M26.9,15l-0.3-0.3c-0.8-0.6-1.7-1.2-2.7-1.7c-0.8-0.4-1.7-0.7-2.6-1c2-1.5,3.1-4,2.6-6.7
	c-0.5-2.6-2.7-4.7-5.3-5.3c-4-0.8-7.6,2-8.1,5.7c-3.8,0-6.8,3-6.8,6.7c0,2.2,1.1,4.1,2.7,5.4c-0.9,0.2-1.8,0.6-2.6,1
	c-1,0.5-1.8,1.1-2.7,1.7l-0.3,0.3C0.2,21.2,0,21.7,0,22.2v2v1.9c0,0.8,0.6,1.4,1.4,1.4h17.9c0.8,0,1.4-0.6,1.4-1.4v-1.9v-2
	c0-0.2,0-0.4-0.1-0.6h5.4c0.8,0,1.4-0.6,1.4-1.4v-1.9v-2C27.5,15.8,27.3,15.4,26.9,15z M12.4,6.2C12.4,6.2,12.4,6.2,12.4,6.2
	C12.7,3.8,14.7,2,17.1,2C19.8,2,22,4.1,22,6.8c0,2.6-2.2,4.8-4.8,4.8c0,0,0,0-0.1,0c0,0,0,0,0,0c0-0.1,0-0.2,0-0.3
	c-0.5-2.6-2.7-4.7-5.3-5.3C11.5,6,12.1,6.1,12.4,6.2z M17.2,12.5C17.2,12.5,17.2,12.5,17.2,12.5C17.2,12.5,17.2,12.5,17.2,12.5z
	 M5.5,12.6c0-2.6,2.2-4.8,4.8-4.8c2.7,0,4.8,2.2,4.8,4.8c0,2.6-2.2,4.8-4.8,4.8C7.7,17.4,5.5,15.3,5.5,12.6z M18.8,25.5H2v-2.9
	c0-0.2,0.1-0.5,0.3-0.6c2.3-1.7,5.1-2.7,8.1-2.7c3,0,5.8,1,8.1,2.7c0.2,0.1,0.3,0.4,0.3,0.6V25.5z M20.4,21.2
	C20.4,21.2,20.4,21.2,20.4,21.2C20.4,21.2,20.4,21.2,20.4,21.2z M25.5,19.7h-7.2h0c-0.4-0.3-0.8-0.5-1.3-0.7c-0.8-0.4-1.7-0.7-2.6-1
	c1.4-1.1,2.4-2.7,2.6-4.5c0,0,0,0,0,0c3,0,5.8,1,8.1,2.7c0.2,0.1,0.3,0.4,0.3,0.6V19.7z"/>
</svg>
