<?xml version="1.0" encoding="utf-8"?>
<!-- Generator: Adobe Illustrator 21.1.0, SVG Export Plug-In . SVG Version: 6.00 Build 0)  -->
<svg version="1.1" id="Layer_1" xmlns="http://www.w3.org/2000/svg" xmlns:xlink="http://www.w3.org/1999/xlink" x="0px" y="0px"
	 viewBox="0 0 27.5 27.5" style="enable-background:new 0 0 27.5 27.5;" xml:space="preserve">
<g id="eC3fCi.tif">
	<g>
		<path d="M18.4,2.3c0.1,0.1,0.2,0.2,0.3,0.2c2.8,2.1,5.6,4.2,8.4,6.4c0.1,0.1,0.2,0.2,0.4,0.3c-3,2.3-6.1,4.5-9.2,6.8
			c0-1.5,0-3,0-4.6c-1,0.1-1.9,0.1-2.9,0.2c-3.2,0.3-5.4,2.1-7.2,4.6c-0.4,0.6-0.9,1.3-1.4,1.9c0.1-0.5,0.1-1.1,0.2-1.6
			c0.4-2.3,1.2-4.4,2.7-6.2c1.8-2.3,4.2-3.4,7-3.8c0.5-0.1,1-0.1,1.6-0.1C18.3,5.1,18.3,3.7,18.4,2.3C18.4,2.3,18.4,2.3,18.4,2.3z"
			/>
		<path d="M2.8,9.6c0,4.3,0,8.6,0,12.9c5.9,0,11.9,0,17.9,0c0-0.1,0-0.2,0-0.4c0-1.2,0-2.3,0-3.5c0-0.2,0.1-0.4,0.3-0.5
			c0.8-0.6,1.6-1.3,2.5-2c0,0.2,0,0.3,0,0.4c0,2.4,0,4.8,0,7.2c0,1-0.5,1.6-1.6,1.6c-6.7,0-13.5,0-20.2,0c-1.1,0-1.6-0.5-1.6-1.6
			c0-5,0-10.1,0-15.1c0-1.1,0.5-1.6,1.6-1.6c2.6,0,5.3,0,7.9,0c0.1,0,0.2,0,0.4,0C9.8,7,9.7,7,9.6,7.1C8.7,7.7,7.8,8.5,7,9.4
			C6.9,9.5,6.7,9.6,6.6,9.6C5.3,9.6,4.1,9.6,2.8,9.6z"/>
	</g>
</g>
</svg>
