<?xml version="1.0" encoding="utf-8"?>
<!-- Generator: Adobe Illustrator 21.1.0, SVG Export Plug-In . SVG Version: 6.00 Build 0)  -->
<svg version="1.1" id="Layer_1" xmlns="http://www.w3.org/2000/svg" xmlns:xlink="http://www.w3.org/1999/xlink" x="0px" y="0px"
	 viewBox="0 0 27.5 27.5" style="enable-background:new 0 0 27.5 27.5;" xml:space="preserve">
<g>
	<path d="M26.6,15.4c0.1,0.4,0.2,0.7,0.2,1.1c0,0.8-0.2,1.6-0.7,2.4c0,0.2,0.1,0.5,0.1,0.7c0,1.1-0.4,2.1-1.1,2.9v0.1
		c0,1.5-0.5,2.7-1.5,3.6c-1,0.9-2.4,1.3-4.1,1.3h-2c-1.3,0-2.4-0.1-3.6-0.4c-1.1-0.2-2.5-0.6-4-1.1c-1.4-0.4-2.2-0.7-2.5-0.7H2.3
		c-0.6,0-1.2-0.2-1.6-0.6C0.2,24.4,0,23.9,0,23.3V12.7c0-0.6,0.2-1.1,0.7-1.5c0.4-0.4,1-0.6,1.6-0.6h4.9C7.6,10.3,8.4,9.5,9.6,8
		c0.7-0.8,1.3-1.5,1.9-2.1c0.2-0.2,0.4-0.6,0.6-1.1c0.1-0.5,0.2-0.9,0.3-1.4c0.1-0.5,0.2-1,0.5-1.5c0.2-0.5,0.6-1,1-1.4
		c0.5-0.4,1-0.6,1.6-0.6c1,0,1.9,0.2,2.7,0.5C19,0.9,19.6,1.5,20,2.2C20.4,3,20.6,4,20.6,5.3c0,1-0.3,2.1-0.9,3.2h3.2
		c1.2,0,2.3,0.4,3.2,1.3c0.9,0.8,1.4,1.8,1.4,3C27.5,13.7,27.2,14.6,26.6,15.4z M4.2,21.5c-0.2-0.2-0.5-0.3-0.8-0.3
		c-0.3,0-0.6,0.1-0.8,0.3c-0.2,0.2-0.3,0.5-0.3,0.7c0,0.3,0.1,0.5,0.3,0.7c0.2,0.2,0.5,0.3,0.8,0.3c0.3,0,0.6-0.1,0.8-0.3
		c0.2-0.2,0.3-0.5,0.3-0.7C4.6,21.9,4.5,21.7,4.2,21.5z M24.5,11.2c-0.5-0.4-1-0.6-1.6-0.6h-6.3c0-0.6,0.3-1.5,0.9-2.6
		c0.6-1.1,0.9-2,0.9-2.7c0-1.1-0.2-1.9-0.6-2.4c-0.4-0.5-1.1-0.8-2.3-0.8c-0.3,0.3-0.5,0.8-0.7,1.4c-0.1,0.6-0.3,1.3-0.5,2.1
		c-0.2,0.7-0.6,1.3-1.1,1.8c-0.3,0.3-0.7,0.8-1.4,1.5c0,0.1-0.2,0.2-0.4,0.5c-0.2,0.3-0.4,0.5-0.6,0.7c-0.1,0.2-0.4,0.4-0.6,0.7
		c-0.3,0.3-0.5,0.5-0.7,0.7c-0.2,0.2-0.4,0.4-0.7,0.6c-0.2,0.2-0.5,0.3-0.7,0.4c-0.2,0.1-0.4,0.1-0.6,0.1H6.9v10.6h0.6
		c0.2,0,0.3,0,0.6,0c0.2,0,0.4,0.1,0.6,0.1c0.2,0,0.4,0.1,0.7,0.2c0.3,0.1,0.5,0.1,0.6,0.2c0.1,0,0.3,0.1,0.6,0.2
		c0.3,0.1,0.5,0.2,0.5,0.2c2.5,0.8,4.6,1.2,6.1,1.2h2.3c1,0,1.9-0.2,2.4-0.7c0.6-0.5,0.9-1.1,0.9-2.1c0-0.3,0-0.6-0.1-0.9
		c0.4-0.2,0.6-0.5,0.9-0.9c0.2-0.4,0.3-0.8,0.3-1.2c0-0.4-0.1-0.8-0.3-1.1c0.6-0.6,0.9-1.2,0.9-2c0-0.3-0.1-0.6-0.2-0.9
		c-0.1-0.3-0.3-0.6-0.4-0.8c0.4,0,0.7-0.3,1-0.8c0.3-0.5,0.4-1,0.4-1.3C25.2,12.1,25,11.6,24.5,11.2z"/>
</g>
</svg>
