<svg viewBox="0 0 678.5 545" style="enable-background:new 0 0 678.5 545;" xml:space="preserve">
                                <path d="M73.8,282c1.7-1.2,4.4-1.9,5-3.5c3.2-7.7,10.7-10.4,16.7-14.9c1.5-1.1,4-1.3,6.1-1.5c2.4-0.3,4.8-0.1,7.2-0.1
                                    c154.2,0,308.5,0,462.7,0c3.6,0,7.9-0.7,10.8,0.9c6.3,3.3,13.1,6.4,17,13.1c1.4,2.3,3.6,4.1,5.2,6.3c0.7,0.9,1.1,2.2,1.1,3.4
                                    c0.1,15.6,0.1,31.2-0.1,46.9c0,1.5-1.4,3-2.3,4.4c-0.7,1.2-1.9,2-2.6,3.3c-5.5,10.9-15.3,14.7-26.6,15.7c-4.2,0.4-8.4-0.1-12.7-0.1
                                    c-147.8,0-295.5,0-443.3,0c-3.7,0-7.3,0.4-11,0.2c-12.1-0.7-22.5-4.3-28.6-16c-0.7-1.4-3.2-2-4.8-3C73.8,318.6,73.8,300.3,73.8,282z
                                    "/>
                                <path d="M497.6,0.8c0.9,1.6,1.3,3.8,2.6,4.8c5.5,4.5,8.3,10.1,8.3,17.2c0,5.5,0,11,0,16.4c-0.1,7.5-3.1,13.7-8.8,18.3
                                    c-2.3,1.8-5.6,3.1-8.4,3.1c-36.8,0.2-73.7,0.2-110.5,0.1c-7.6,0-16.2-8.5-16.5-16.4c-0.3-8.8-0.1-17.7-0.1-26.6
                                    c0-5.3,3.7-8.2,7-11.5c1.4-1.4,2.2-3.6,3.2-5.5C415.5,0.8,456.6,0.8,497.6,0.8z"/>
                                <path d="M339.6,545.1c-53.5,0-106.9-0.2-160.4,0.2c-7.5,0.1-12.9-2.5-17.5-7.3c-5.1-5.3-9.7-11.2-14.5-16.8c-0.4-0.5-0.8-1.2-1-1.8
                                    c-2.3-7.5-4.6-15-6.9-22.5c-0.7-2.3-1.5-4.5-2.3-6.8c-0.3-0.9-1.1-1.7-1.3-2.6c-2.7-9.2-5.3-18.5-7.9-27.7c0-0.1,0-0.3-0.1-0.4
                                    c-2.9-9.3-5.8-18.6-8.7-27.9c-0.4-1.3-1.3-2.5-1.7-3.9c-2.4-9.1-4.6-18.2-7-27.3c-0.9-3.4-2-6.7-3-10.1c-1.1-3.8,0.3-6,4.1-6.7
                                    c1.5-0.3,3.1-0.2,4.6-0.2c28.7,0,57.4,0,86.1,0c5.8,0,6.8,1.2,6.8,6.9c-0.1,30.5-0.2,61.1-0.2,91.6c0,8,2.5,10.3,10.4,10.4
                                    c5.6,0.1,11.3,0.1,16.9,0c8-0.1,10.1-2.1,10.2-10c0.1-9.4,0-18.9,0-28.3c-0.1-21.5-0.1-43.1-0.2-64.6c0-4.8,1.2-6.1,5.9-6.1
                                    c9,0,18,0,27,0.1c5.1,0,6.4,1.7,5.8,6.9c-0.3,2.5-0.6,5-0.6,7.6c-0.1,27.3-0.1,54.6-0.1,81.9c0,1.7,0,3.4,0.2,5.1
                                    c0.7,5.3,3,7.4,8.4,7.5c5.9,0.1,11.8,0.1,17.7,0.1c8.3,0,11.7-3.4,11.7-11.9c0-22.9,0-45.9-0.1-68.8c0-7.4-0.3-14.9-0.6-22.3
                                    c-0.1-3.8,1.6-5.9,5.4-5.9c8.6-0.1,17.2-0.1,25.7,0c3.9,0.1,5.6,2.1,5.5,5.9c-0.2,26.7-0.4,53.5-0.6,80.2c0,4.1-0.2,8.2,0,12.2
                                    c0.2,7.2,3.6,10.5,10.8,10.7c6.2,0.1,12.4,0.1,18.6,0c5.5-0.1,8-2.3,8.5-7.9c0.3-3.9,0.2-7.9,0.2-11.8c0-23.2,0-46.4,0-69.7
                                    c0-4.5-0.4-9-0.7-13.5c-0.3-4.3,1-6,5.4-6.1c9.1-0.1,18.3-0.1,27.4-0.1c4.8,0,6,1.3,6,6c-0.1,29.8-0.2,59.7-0.3,89.5
                                    c0,2.1,0.1,4.2,0.2,6.3c0.3,4.1,2.5,6.7,6.6,6.9c7.9,0.2,15.8,0.3,23.6,0c4.3-0.1,6.5-2.9,6.9-7.2c0.2-1.8,0.2-3.7,0.2-5.5
                                    c-0.1-30-0.2-59.9-0.3-89.9c0-4.8,1.2-6.1,5.9-6.1c29.6,0,59.1,0,88.7,0c7.2,0,8.7,2.3,6.3,9.2c-0.5,1.3-0.9,2.7-1.2,4
                                    c-2.6,10-4.8,20.2-7.7,30.1c-2.7,9.2-6.1,18.2-9.1,27.3c-0.6,1.7-0.9,3.5-1.4,5.3c-1.2,4-2.5,7.9-3.8,11.9c-0.2,0.7-0.7,1.3-0.9,1.9
                                    c-2.3,7.6-4.6,15.2-6.8,22.9c-2.3,7.9-4.1,16-7,23.7c-3.5,9.3-11,15.5-18.6,21.7c-5.1,4.1-10.4,3.7-16,3.7
                                    C445.7,545.1,392.7,545.1,339.6,545.1z"/>
                                <path d="M522.3,236.2c-1.3,0-2.6-0.2-3.8,0c-10.5,2-18.1-4-26.1-9.3c-4.2-2.8-8.6-5.2-13-7.6c-12-6.6-24.2-13.1-36.2-19.8
                                    c-5.1-2.9-9.9-6.3-14.9-9.3c-4.8-2.9-9.7-5.6-14.5-8.4c-11.8-6.7-23.6-13.4-35.4-20.1c-6.9-3.9-13.7-8.1-20.7-11.9
                                    c-5.1-2.9-6.3-7-3.8-12.4c2-4.3,3.2-8.9,4.9-13.3c2.3-6,4.6-12,7.2-17.9c2.3-5.2,5.1-10.3,7.7-15.4c1.6-3.1,4.2-3.8,7.4-3.6
                                    c5.2,0.3,10.4,0.7,15.6,0.7c28.3,0.1,56.6,0.8,84.8-0.4c10.8-0.4,17.4,1.9,21.1,11.9c1.9,5.1,4.7,9.9,6.4,15.1
                                    c5.1,15.6,10,31.3,14.8,47c3,9.9,5.8,19.9,8.7,29.9c0.2,0.7,0.4,1.3,0.6,2c2.1,10.2,4.1,20.4,6.1,30.6c0.5,2.3,0.7,4.7,0.8,7.1
                                    c0.1,3.4-1.5,5.3-5.1,5.2C530.7,236.1,526.5,236.2,522.3,236.2z"/>
                                <path d="M448.9,235.5c-1.8,0.3-3.6,0.9-5.4,0.9c-64.9,0-129.7,0-194.6-0.2c-1.7,0-3.5-1.2-5.2-1.8c1.1-1.8,2-4,3.5-5.5
                                    c7.6-7.1,15.6-13.8,23.1-21c13.4-12.8,26.7-25.7,40-38.7c9.1-8.9,13.8-7.1,23.7-1.7c8.9,4.8,17.5,10,26.2,15.1
                                    c9.4,5.5,18.8,11.1,28.2,16.6c4.3,2.5,8.6,5.2,13,7.6c8.3,4.6,16.8,8.9,25.1,13.5c6.8,3.8,13.5,7.9,20.3,11.9
                                    c0.8,0.5,1.4,1.2,2.1,1.9C449,234.5,448.9,235,448.9,235.5z"/>
                                <path d="M165.5,236.2c-10.6,0-21.1,0-31.7,0c-6.4,0-8.3-1.9-6.1-8c2.7-7.6,6.4-14.8,9.9-22.1c2-4,4.2-8,6.9-11.6
                                    c3.9-5.1,8.1-10,12.6-14.6c9.1-9.3,20.6-15.1,31.9-20.8c14.3-7.2,30-7.4,45.7-6.8c4.1,0.2,8.2,0.1,12.2,0.7c4.2,0.7,8.4,2,12.5,3.2
                                    c4.1,1.3,8.3,2.6,12.2,4.4c4.1,1.8,4.3,5.2,1,8.3c-15.5,14.7-31,29.3-46.5,44c-7.1,6.8-14.1,13.7-21.4,20.3c-1.9,1.7-5,2.7-7.5,2.8
                                    C186.6,236.3,176,236.2,165.5,236.2z"/>
                            </svg>